# xmcd CD database file
#
# Track frame offsets:
#	150
#	15613
#	32190
#	47375
#	68718
#	107357
#	130847
#	154394
#	175872
#	193555
#	210622
#	223272
#	238118
#	269335
#	282092
#	299447
#	307501
#
# Disc length: 4387 seconds
#
# Revision: 1
# Processed by: cddbd v1.5.2PL0 Copyright (c) Steve Scherf et al.
# Submitted via: CDex 1.51
#
DISCID=f1112111
DTITLE=Pat Metheny and Anna Maria Jopek - Upojenie
DYEAR=2008
DGENRE=Jazz
TTITLE0=Cichy Zapada Zmrok (Here Comes the Silent Dusk)
TTITLE1=Mania Mienia (So May It Secretly Begin)
TTITLE2=Biel (Whiteness)
TTITLE3=Przyplyw, Odplyw, Oddech Czasu (Tell Her You Saw Me)
TTITLE4=Are You Going With Me?
TTITLE5=Czarne Slowa (Black Words)
TTITLE6=Lulajze Jezuniu (Polish Christmas Carol)
TTITLE7=Upojenie (Ecstasy)
TTITLE8=Zupelnie Inna Ja (Always and Forever)
TTITLE9=Piosenka Dla Stasia (A Song for Stas)
TTITLE10=Letter From Home
TTITLE11=Me Jedyne Niebo (Another Life)
TTITLE12=By On Byl Tu (Farmer's Trust)
TTITLE13=Polskie Drogi (Polish Paths)
TTITLE14=Tam, Gdzie Niesiega Wzrok (Follow Me)
TTITLE15=Na Calej Polacisnieg (The Snow Falls All Over the Place)
TTITLE16=Szepty i Lzy (Whispers and Tears)
EXTD=YEAR: 2008
EXTT0=
EXTT1=
EXTT2=
EXTT3=
EXTT4=
EXTT5=
EXTT6=
EXTT7=
EXTT8=
EXTT9=
EXTT10=
EXTT11=
EXTT12=
EXTT13=
EXTT14=
EXTT15=
EXTT16=
PLAYORDER=
